<svg width="1199" height="758" viewBox="0 0 1199 758" fill="none" xmlns="http://www.w3.org/2000/svg">
<g clip-path="url(#clip0_104_2)">
<path d="M1055.8 693.218L1056.97 666.952C1069.14 660.442 1082.72 657.004 1096.52 656.936C1077.53 672.473 1079.9 702.423 1067.02 723.317C1062.96 729.802 1057.48 735.29 1051.01 739.371C1044.53 743.453 1037.22 746.025 1029.62 746.897L1013.72 756.634C1011.54 744.468 1012.02 731.974 1015.13 720.013C1018.24 708.052 1023.91 696.907 1031.74 687.347C1036.18 682.027 1041.28 677.288 1046.91 673.243C1050.72 683.286 1055.8 693.218 1055.8 693.218Z" fill="#F2F2F2"/>
<path d="M252.166 664.435L213.803 652.815C208.771 632.367 208.806 610.999 213.903 590.567C229.701 624.504 274.842 632.274 300.857 659.185C308.907 667.64 314.952 677.799 318.543 688.909C322.135 700.019 323.181 711.795 321.605 723.364L330.002 750.534C311.208 749.177 292.932 743.761 276.432 734.658C259.933 725.554 245.602 712.981 234.428 697.804C228.243 689.228 223.163 679.906 219.307 670.06C235.578 668.214 252.166 664.435 252.166 664.435Z" fill="#F2F2F2"/>
<path d="M922.872 752.338C922.867 753.134 922.551 753.895 921.991 754.46C921.714 754.736 921.386 754.955 921.024 755.104C920.663 755.253 920.276 755.328 919.885 755.327H907.874C907.481 755.328 907.092 755.252 906.729 755.102C906.366 754.953 906.036 754.733 905.758 754.455C905.48 754.177 905.26 753.847 905.111 753.484C904.961 753.12 904.885 752.731 904.886 752.338V388.984C904.886 380.974 902.197 374.473 898.896 374.458H151.221C147.904 374.473 145.23 380.974 145.215 388.984V750.112C145.213 750.854 144.935 751.57 144.436 752.119C143.936 752.668 143.25 753.013 142.511 753.085C140.091 753.325 137.671 753.534 135.266 753.728C135.206 753.728 135.147 753.743 135.087 753.743C133.772 753.863 132.458 753.952 131.143 754.057H131.128C130.441 752.817 129.784 751.546 129.111 750.276C128.896 749.844 128.783 749.369 128.783 748.886V370.139C128.783 367.928 128.872 365.701 129.022 363.504C129.235 360.487 129.609 357.484 130.142 354.508C132.667 340.624 138.373 331.224 144.857 331.195H905.245C906.191 331.201 907.126 331.399 907.993 331.777C909.267 332.341 910.419 333.149 911.384 334.154C912.695 335.516 913.815 337.049 914.716 338.712C917.913 344.346 920.198 352.744 921.005 362.518C921.005 362.607 921.02 362.697 921.02 362.787C921.229 365.208 921.334 367.673 921.319 370.139L921.528 402.165L921.662 421.264L922.066 481.19L922.215 502.471L922.872 752.338Z" fill="#E6E6E6"/>
<path d="M645.385 220.407H569.188C568.11 220.409 567.077 220.839 566.316 221.602C565.554 222.366 565.127 223.4 565.129 224.479V344.89H649.454V224.479C649.455 223.944 649.349 223.414 649.145 222.92C648.941 222.426 648.641 221.977 648.263 221.599C647.885 221.221 647.436 220.921 646.942 220.717C646.448 220.512 645.919 220.407 645.385 220.407V220.407ZM607.543 288.824C605.16 288.813 602.878 287.861 601.193 286.175C599.508 284.49 598.556 282.207 598.545 279.823V265.935C598.545 263.547 599.493 261.258 601.18 259.57C602.868 257.882 605.156 256.934 607.543 256.934C609.929 256.934 612.217 257.882 613.905 259.57C615.592 261.258 616.54 263.547 616.54 265.935V279.823C616.529 282.207 615.578 284.49 613.893 286.175C612.208 287.861 609.925 288.813 607.543 288.824V288.824Z" fill="#CCCCCC"/>
<path d="M564.867 341.039V352.656C564.868 353.258 565.108 353.835 565.533 354.261C565.959 354.686 566.536 354.926 567.137 354.927H647.446C648.047 354.924 648.622 354.684 649.048 354.259C649.473 353.833 649.713 353.257 649.716 352.656V341.039H564.867Z" fill="#3F3D56"/>
<path d="M771.559 32.4917H445.849C443.05 32.4961 440.368 33.6102 438.389 35.5896C436.41 37.5691 435.297 40.2525 435.292 43.0519V262.922C435.295 265.722 436.408 268.406 438.387 270.386C440.366 272.366 443.05 273.479 445.849 273.482H771.559C774.358 273.479 777.041 272.366 779.021 270.386C781 268.406 782.113 265.722 782.115 262.922V43.0519C782.111 40.2525 780.997 37.5691 779.019 35.5896C777.04 33.6102 774.357 32.4961 771.559 32.4917V32.4917Z" fill="#E6E6E6"/>
<path d="M768.84 40.1191H448.57C447.072 40.1224 445.636 40.7201 444.577 41.7811C443.519 42.842 442.925 44.2797 442.924 45.7785V260.199C442.927 261.696 443.523 263.131 444.581 264.189C445.639 265.248 447.073 265.844 448.57 265.846H768.84C770.337 265.844 771.771 265.248 772.829 264.189C773.888 263.131 774.483 261.696 774.486 260.199V45.7785C774.486 44.2796 773.891 42.842 772.833 41.781C771.774 40.7201 770.339 40.1224 768.84 40.1191V40.1191Z" fill="white"/>
<path d="M706.457 358.97H515.914C515.392 358.97 514.877 358.853 514.406 358.629C513.935 358.404 513.521 358.078 513.192 357.672C512.863 357.267 512.629 356.794 512.507 356.287C512.384 355.78 512.376 355.251 512.484 354.741L515.44 340.694C515.609 339.908 516.041 339.203 516.664 338.697C517.288 338.19 518.066 337.913 518.87 337.91H703.501C704.304 337.913 705.083 338.19 705.706 338.697C706.33 339.203 706.762 339.908 706.93 340.694L709.887 354.741C709.995 355.251 709.987 355.78 709.864 356.287C709.742 356.794 709.508 357.267 709.179 357.672C708.85 358.078 708.435 358.404 707.965 358.629C707.494 358.853 706.979 358.97 706.457 358.97V358.97Z" fill="#CCCCCC"/>
<path d="M525.362 340.439H520.952C520.549 340.439 520.223 340.766 520.223 341.169V343.232C520.223 343.635 520.549 343.961 520.952 343.961H525.362C525.765 343.961 526.091 343.635 526.091 343.232V341.169C526.091 340.766 525.765 340.439 525.362 340.439Z" fill="#E6E6E6"/>
<path d="M537.099 340.439H532.689C532.286 340.439 531.96 340.766 531.96 341.169V343.232C531.96 343.635 532.286 343.961 532.689 343.961H537.099C537.502 343.961 537.828 343.635 537.828 343.232V341.169C537.828 340.766 537.502 340.439 537.099 340.439Z" fill="#E6E6E6"/>
<path d="M548.836 340.439H544.426C544.024 340.439 543.697 340.766 543.697 341.169V343.232C543.697 343.635 544.024 343.961 544.426 343.961H548.836C549.239 343.961 549.566 343.635 549.566 343.232V341.169C549.566 340.766 549.239 340.439 548.836 340.439Z" fill="#E6E6E6"/>
<path d="M560.573 340.439H556.163C555.761 340.439 555.434 340.766 555.434 341.169V343.232C555.434 343.635 555.761 343.961 556.163 343.961H560.573C560.976 343.961 561.303 343.635 561.303 343.232V341.169C561.303 340.766 560.976 340.439 560.573 340.439Z" fill="#E6E6E6"/>
<path d="M572.31 340.439H567.901C567.498 340.439 567.171 340.766 567.171 341.169V343.232C567.171 343.635 567.498 343.961 567.901 343.961H572.31C572.713 343.961 573.04 343.635 573.04 343.232V341.169C573.04 340.766 572.713 340.439 572.31 340.439Z" fill="#E6E6E6"/>
<path d="M584.048 340.439H579.638C579.235 340.439 578.908 340.766 578.908 341.169V343.232C578.908 343.635 579.235 343.961 579.638 343.961H584.048C584.45 343.961 584.777 343.635 584.777 343.232V341.169C584.777 340.766 584.45 340.439 584.048 340.439Z" fill="#E6E6E6"/>
<path d="M595.785 340.439H591.375C590.972 340.439 590.645 340.766 590.645 341.169V343.232C590.645 343.635 590.972 343.961 591.375 343.961H595.785C596.188 343.961 596.514 343.635 596.514 343.232V341.169C596.514 340.766 596.188 340.439 595.785 340.439Z" fill="#E6E6E6"/>
<path d="M607.522 340.439H603.112C602.709 340.439 602.383 340.766 602.383 341.169V343.232C602.383 343.635 602.709 343.961 603.112 343.961H607.522C607.925 343.961 608.251 343.635 608.251 343.232V341.169C608.251 340.766 607.925 340.439 607.522 340.439Z" fill="#E6E6E6"/>
<path d="M619.259 340.439H614.849C614.446 340.439 614.12 340.766 614.12 341.169V343.232C614.12 343.635 614.446 343.961 614.849 343.961H619.259C619.662 343.961 619.988 343.635 619.988 343.232V341.169C619.988 340.766 619.662 340.439 619.259 340.439Z" fill="#E6E6E6"/>
<path d="M630.996 340.439H626.586C626.183 340.439 625.857 340.766 625.857 341.169V343.232C625.857 343.635 626.183 343.961 626.586 343.961H630.996C631.399 343.961 631.725 343.635 631.725 343.232V341.169C631.725 340.766 631.399 340.439 630.996 340.439Z" fill="#E6E6E6"/>
<path d="M642.733 340.439H638.323C637.92 340.439 637.594 340.766 637.594 341.169V343.232C637.594 343.635 637.92 343.961 638.323 343.961H642.733C643.136 343.961 643.462 343.635 643.462 343.232V341.169C643.462 340.766 643.136 340.439 642.733 340.439Z" fill="#E6E6E6"/>
<path d="M654.47 340.439H650.06C649.658 340.439 649.331 340.766 649.331 341.169V343.232C649.331 343.635 649.658 343.961 650.06 343.961H654.47C654.873 343.961 655.2 343.635 655.2 343.232V341.169C655.2 340.766 654.873 340.439 654.47 340.439Z" fill="#E6E6E6"/>
<path d="M666.207 340.439H661.797C661.395 340.439 661.068 340.766 661.068 341.169V343.232C661.068 343.635 661.395 343.961 661.797 343.961H666.207C666.61 343.961 666.937 343.635 666.937 343.232V341.169C666.937 340.766 666.61 340.439 666.207 340.439Z" fill="#E6E6E6"/>
<path d="M677.944 340.439H673.535C673.132 340.439 672.805 340.766 672.805 341.169V343.232C672.805 343.635 673.132 343.961 673.535 343.961H677.944C678.347 343.961 678.674 343.635 678.674 343.232V341.169C678.674 340.766 678.347 340.439 677.944 340.439Z" fill="#E6E6E6"/>
<path d="M689.682 340.439H685.272C684.869 340.439 684.542 340.766 684.542 341.169V343.232C684.542 343.635 684.869 343.961 685.272 343.961H689.682C690.084 343.961 690.411 343.635 690.411 343.232V341.169C690.411 340.766 690.084 340.439 689.682 340.439Z" fill="#E6E6E6"/>
<path d="M701.419 340.439H697.009C696.606 340.439 696.279 340.766 696.279 341.169V343.232C696.279 343.635 696.606 343.961 697.009 343.961H701.419C701.821 343.961 702.148 343.635 702.148 343.232V341.169C702.148 340.766 701.821 340.439 701.419 340.439Z" fill="#E6E6E6"/>
<path d="M525.223 346.31H520.813C520.411 346.31 520.084 346.636 520.084 347.039V349.103C520.084 349.506 520.411 349.832 520.813 349.832H525.223C525.626 349.832 525.953 349.506 525.953 349.103V347.039C525.953 346.636 525.626 346.31 525.223 346.31Z" fill="#E6E6E6"/>
<path d="M536.961 346.31H532.551C532.148 346.31 531.821 346.636 531.821 347.039V349.103C531.821 349.506 532.148 349.832 532.551 349.832H536.961C537.363 349.832 537.69 349.506 537.69 349.103V347.039C537.69 346.636 537.363 346.31 536.961 346.31Z" fill="#E6E6E6"/>
<path d="M548.698 346.31H544.288C543.885 346.31 543.558 346.636 543.558 347.039V349.103C543.558 349.506 543.885 349.832 544.288 349.832H548.698C549.1 349.832 549.427 349.506 549.427 349.103V347.039C549.427 346.636 549.1 346.31 548.698 346.31Z" fill="#E6E6E6"/>
<path d="M560.435 346.31H556.025C555.622 346.31 555.295 346.636 555.295 347.039V349.103C555.295 349.506 555.622 349.832 556.025 349.832H560.435C560.837 349.832 561.164 349.506 561.164 349.103V347.039C561.164 346.636 560.837 346.31 560.435 346.31Z" fill="#E6E6E6"/>
<path d="M572.172 346.31H567.762C567.359 346.31 567.033 346.636 567.033 347.039V349.103C567.033 349.506 567.359 349.832 567.762 349.832H572.172C572.575 349.832 572.901 349.506 572.901 349.103V347.039C572.901 346.636 572.575 346.31 572.172 346.31Z" fill="#E6E6E6"/>
<path d="M583.909 346.31H579.499C579.096 346.31 578.77 346.636 578.77 347.039V349.103C578.77 349.506 579.096 349.832 579.499 349.832H583.909C584.312 349.832 584.638 349.506 584.638 349.103V347.039C584.638 346.636 584.312 346.31 583.909 346.31Z" fill="#E6E6E6"/>
<path d="M595.646 346.31H591.236C590.833 346.31 590.507 346.636 590.507 347.039V349.103C590.507 349.506 590.833 349.832 591.236 349.832H595.646C596.049 349.832 596.375 349.506 596.375 349.103V347.039C596.375 346.636 596.049 346.31 595.646 346.31Z" fill="#E6E6E6"/>
<path d="M607.383 346.31H602.973C602.57 346.31 602.244 346.636 602.244 347.039V349.103C602.244 349.506 602.57 349.832 602.973 349.832H607.383C607.786 349.832 608.112 349.506 608.112 349.103V347.039C608.112 346.636 607.786 346.31 607.383 346.31Z" fill="#E6E6E6"/>
<path d="M619.12 346.31H614.71C614.308 346.31 613.981 346.636 613.981 347.039V349.103C613.981 349.506 614.308 349.832 614.71 349.832H619.12C619.523 349.832 619.849 349.506 619.849 349.103V347.039C619.849 346.636 619.523 346.31 619.12 346.31Z" fill="#E6E6E6"/>
<path d="M630.857 346.31H626.447C626.045 346.31 625.718 346.636 625.718 347.039V349.103C625.718 349.506 626.045 349.832 626.447 349.832H630.857C631.26 349.832 631.587 349.506 631.587 349.103V347.039C631.587 346.636 631.26 346.31 630.857 346.31Z" fill="#E6E6E6"/>
<path d="M642.594 346.31H638.184C637.782 346.31 637.455 346.636 637.455 347.039V349.103C637.455 349.506 637.782 349.832 638.184 349.832H642.594C642.997 349.832 643.324 349.506 643.324 349.103V347.039C643.324 346.636 642.997 346.31 642.594 346.31Z" fill="#E6E6E6"/>
<path d="M654.332 346.31H649.922C649.519 346.31 649.192 346.636 649.192 347.039V349.103C649.192 349.506 649.519 349.832 649.922 349.832H654.332C654.734 349.832 655.061 349.506 655.061 349.103V347.039C655.061 346.636 654.734 346.31 654.332 346.31Z" fill="#E6E6E6"/>
<path d="M666.069 346.31H661.659C661.256 346.31 660.929 346.636 660.929 347.039V349.103C660.929 349.506 661.256 349.832 661.659 349.832H666.069C666.471 349.832 666.798 349.506 666.798 349.103V347.039C666.798 346.636 666.471 346.31 666.069 346.31Z" fill="#E6E6E6"/>
<path d="M677.806 346.31H673.396C672.993 346.31 672.667 346.636 672.667 347.039V349.103C672.667 349.506 672.993 349.832 673.396 349.832H677.806C678.209 349.832 678.535 349.506 678.535 349.103V347.039C678.535 346.636 678.209 346.31 677.806 346.31Z" fill="#E6E6E6"/>
<path d="M689.543 346.31H685.133C684.73 346.31 684.404 346.636 684.404 347.039V349.103C684.404 349.506 684.73 349.832 685.133 349.832H689.543C689.946 349.832 690.272 349.506 690.272 349.103V347.039C690.272 346.636 689.946 346.31 689.543 346.31Z" fill="#E6E6E6"/>
<path d="M701.28 346.31H696.87C696.467 346.31 696.141 346.636 696.141 347.039V349.103C696.141 349.506 696.467 349.832 696.87 349.832H701.28C701.683 349.832 702.009 349.506 702.009 349.103V347.039C702.009 346.636 701.683 346.31 701.28 346.31Z" fill="#E6E6E6"/>
<path d="M622.641 353.354H577.152C576.749 353.354 576.422 353.681 576.422 354.084V356.147C576.422 356.55 576.749 356.877 577.152 356.877H622.641C623.044 356.877 623.371 356.55 623.371 356.147V354.084C623.371 353.681 623.044 353.354 622.641 353.354Z" fill="#E6E6E6"/>
<path d="M752.741 69.6614H453.065C452.754 69.6545 452.457 69.5259 452.239 69.3031C452.022 69.0803 451.9 68.781 451.9 68.4693C451.9 68.1576 452.022 67.8583 452.239 67.6355C452.457 67.4126 452.754 67.284 453.065 67.2771H752.741C753.052 67.284 753.349 67.4126 753.567 67.6355C753.785 67.8583 753.907 68.1576 753.907 68.4693C753.907 68.781 753.785 69.0803 753.567 69.3031C753.349 69.5259 753.052 69.6545 752.741 69.6614Z" fill="#CACACA"/>
<path d="M473.464 61.1902C477.322 61.1902 480.449 57.9925 480.449 54.0479C480.449 50.1034 477.322 46.9056 473.464 46.9056C469.607 46.9056 466.48 50.1034 466.48 54.0479C466.48 57.9925 469.607 61.1902 473.464 61.1902Z" fill="#CCCCCC"/>
<path d="M497.591 61.1902C501.449 61.1902 504.575 57.9925 504.575 54.0479C504.575 50.1034 501.449 46.9056 497.591 46.9056C493.734 46.9056 490.607 50.1034 490.607 54.0479C490.607 57.9925 493.734 61.1902 497.591 61.1902Z" fill="#CCCCCC"/>
<path d="M521.718 61.1902C525.575 61.1902 528.702 57.9925 528.702 54.0479C528.702 50.1034 525.575 46.9056 521.718 46.9056C517.861 46.9056 514.734 50.1034 514.734 54.0479C514.734 57.9925 517.861 61.1902 521.718 61.1902Z" fill="#CCCCCC"/>
<path d="M738.215 48.6759H721.076C720.736 48.6827 720.413 48.8225 720.175 49.0652C719.937 49.3079 719.804 49.6342 719.804 49.9741C719.804 50.3139 719.937 50.6402 720.175 50.8829C720.413 51.1256 720.736 51.2654 721.076 51.2722H738.215C738.554 51.2654 738.878 51.1256 739.115 50.8829C739.353 50.6402 739.486 50.3139 739.486 49.9741C739.486 49.6342 739.353 49.3079 739.115 49.0652C738.878 48.8225 738.554 48.6827 738.215 48.6759V48.6759Z" fill="#CCCCCC"/>
<path d="M738.215 53.5487H721.076C720.736 53.5555 720.413 53.6953 720.175 53.938C719.937 54.1807 719.804 54.507 719.804 54.8468C719.804 55.1867 719.937 55.513 720.175 55.7557C720.413 55.9984 720.736 56.1382 721.076 56.145H738.215C738.554 56.1382 738.878 55.9984 739.115 55.7557C739.353 55.513 739.486 55.1867 739.486 54.8468C739.486 54.507 739.353 54.1807 739.115 53.938C738.878 53.6953 738.554 53.5555 738.215 53.5487V53.5487Z" fill="#CCCCCC"/>
<path d="M738.215 58.4153H721.076C720.736 58.4221 720.413 58.5619 720.175 58.8046C719.937 59.0473 719.804 59.3736 719.804 59.7134C719.804 60.0533 719.937 60.3796 720.175 60.6223C720.413 60.865 720.736 61.0048 721.076 61.0116H738.215C738.554 61.0048 738.878 60.865 739.115 60.6223C739.353 60.3796 739.486 60.0533 739.486 59.7134C739.486 59.3736 739.353 59.0473 739.115 58.8046C738.878 58.5619 738.554 58.4221 738.215 58.4153V58.4153Z" fill="#CCCCCC"/>
<path d="M602.596 87.7377L601.628 84.9088L725.408 20.5708L726.375 23.3997L602.596 87.7377Z" fill="#3F3D56"/>
<path d="M976.067 206.906L975.099 204.077L1049.58 140.065L1050.55 142.892L976.067 206.906Z" fill="#3F3D56"/>
<path d="M832.968 221.807L709.188 157.469L710.156 154.64L833.935 218.978L832.968 221.807Z" fill="#3F3D56"/>
<path d="M896.331 177.037L823.766 57.8627L826.059 55.9453L898.623 175.12L896.331 177.037Z" fill="#3F3D56"/>
<path d="M952.962 21.7498L882.29 21.424V18.4352L952.962 18.761V21.7498Z" fill="#3F3D56"/>
<path d="M1080.98 40.2889H1001.81C996.657 40.2889 991.717 38.2421 988.075 34.5987C984.433 30.9553 982.387 26.0139 982.387 20.8614C982.387 15.7089 984.433 10.7674 988.075 7.12403C991.717 3.48067 996.657 1.43384 1001.81 1.43384H1080.98C1086.13 1.43384 1091.07 3.48067 1094.72 7.12403C1098.36 10.7674 1100.4 15.7089 1100.4 20.8614C1100.4 26.0139 1098.36 30.9553 1094.72 34.5987C1091.07 38.2421 1086.13 40.2889 1080.98 40.2889V40.2889Z" fill="#DD00AC"/>
<path d="M1179.58 153.865H1100.4C1095.25 153.865 1090.31 151.818 1086.67 148.175C1083.03 144.532 1080.98 139.59 1080.98 134.438C1080.98 129.285 1083.03 124.344 1086.67 120.7C1090.31 117.057 1095.25 115.01 1100.4 115.01H1179.58C1184.73 115.01 1189.67 117.057 1193.31 120.7C1196.95 124.344 1199 129.285 1199 134.438C1199 139.59 1196.95 144.532 1193.31 148.175C1189.67 151.818 1184.73 153.865 1179.58 153.865V153.865Z" fill="#DD00AC"/>
<path d="M1051.56 233.957L980.887 233.632V230.644L1051.56 230.968V233.957Z" fill="#3F3D56"/>
<path d="M1179.58 252.497H1100.4C1095.25 252.497 1090.31 250.45 1086.67 246.807C1083.03 243.164 1080.98 238.222 1080.98 233.07C1080.98 227.917 1083.03 222.976 1086.67 219.332C1090.31 215.689 1095.25 213.642 1100.4 213.642H1179.58C1184.73 213.642 1189.67 215.689 1193.31 219.332C1196.95 222.976 1199 227.917 1199 233.07C1199 238.222 1196.95 243.164 1193.31 246.807C1189.67 250.45 1184.73 252.497 1179.58 252.497V252.497Z" fill="#DD00AC"/>
<path d="M948.027 239.108H868.851C863.701 239.108 858.761 237.061 855.119 233.418C851.477 229.774 849.431 224.833 849.431 219.68C849.431 214.528 851.477 209.586 855.119 205.943C858.761 202.3 863.701 200.253 868.851 200.253H948.027C953.178 200.253 958.118 202.3 961.76 205.943C965.402 209.586 967.448 214.528 967.448 219.68C967.448 224.833 965.402 229.774 961.76 233.418C958.118 237.061 953.178 239.108 948.027 239.108V239.108Z" fill="#DD00AC"/>
<path d="M840.468 38.855H761.292C756.141 38.855 751.201 36.8082 747.559 33.1648C743.917 29.5215 741.871 24.58 741.871 19.4275C741.871 14.275 743.917 9.33356 747.559 5.6902C751.201 2.04683 756.141 2.17162e-07 761.292 0H840.468C845.618 2.17162e-07 850.558 2.04683 854.2 5.6902C857.842 9.33356 859.888 14.275 859.888 19.4275C859.888 24.58 857.842 29.5215 854.2 33.1648C850.558 36.8082 845.618 38.855 840.468 38.855V38.855Z" fill="#DD00AC"/>
<path d="M462.024 372.381H372.391C369.221 372.381 366.181 373.64 363.94 375.883C361.699 378.125 360.44 381.165 360.44 384.336C360.44 387.507 361.699 390.548 363.94 392.79C366.181 395.032 369.221 396.292 372.391 396.292H405.256V488.946H429.158V396.292H462.024C465.193 396.292 468.233 395.032 470.474 392.79C472.716 390.548 473.975 387.507 473.975 384.336C473.975 381.165 472.716 378.125 470.474 375.883C468.233 373.64 465.193 372.381 462.024 372.381V372.381Z" fill="#3F3D56"/>
<path d="M521.183 540.26H281.44C258.198 540.175 235.763 531.728 218.232 516.463C200.701 501.198 189.245 480.133 185.956 457.117L177.47 425.89C159.905 361.181 133.15 299.327 98.0231 242.22C81.9678 216.137 73.7042 190.889 92.4735 166.58C92.6333 166.373 92.7905 166.169 92.945 165.967C107.999 146.366 182.928 142.123 207.355 141.298C208.32 141.265 209.289 141.249 210.261 141.249H359.379C360.352 141.249 361.32 141.265 362.284 141.298C375.452 141.682 388.271 145.624 399.379 152.708C410.488 159.791 419.473 169.75 425.38 181.529C431.684 193.555 434.616 207.063 433.865 220.621C433.114 234.179 428.707 247.281 421.114 258.536C368.733 337.249 352.696 386.604 369.115 418.567C384.997 449.483 433.681 465.289 522.325 468.309C546.147 469.12 557.08 487.677 557.157 504.573C557.231 521.034 546.72 539.208 523.466 540.212C522.71 540.244 521.949 540.26 521.183 540.26Z" fill="#3F3D56"/>
<path d="M322.167 753.215H411.8C414.97 753.215 418.01 751.956 420.251 749.714C422.492 747.471 423.751 744.431 423.751 741.26C423.751 738.089 422.492 735.048 420.251 732.806C418.01 730.564 414.97 729.304 411.8 729.304H378.935V527.557H355.033V729.304H322.167C318.998 729.304 315.958 730.564 313.717 732.806C311.475 735.048 310.216 738.089 310.216 741.26C310.216 744.431 311.475 747.471 313.717 749.714C315.958 751.956 318.998 753.215 322.167 753.215Z" fill="#3F3D56"/>
<path d="M403.294 671.881L418.735 680.271L459.61 623.735L436.82 611.351L403.294 671.881Z" fill="#FFE0C3"/>
<path d="M410.726 651.735L438.758 660.516L434.296 672.263L453.518 700.171C454.467 701.55 454.951 703.196 454.9 704.869C454.848 706.542 454.263 708.154 453.23 709.471C452.197 710.788 450.771 711.741 449.159 712.189C447.546 712.637 445.833 712.559 444.269 711.964L411.637 699.562L410.425 685.804L403.816 696.589L391.512 691.913L410.726 651.735Z" fill="#2F2E41"/>
<path d="M442.307 101.734C442.673 104.245 442.485 106.805 441.754 109.235C441.024 111.665 439.77 113.906 438.081 115.799C436.392 117.691 434.308 119.191 431.977 120.191C429.646 121.191 427.124 121.668 424.588 121.587L365.055 248.307L346.383 222.26L407.668 102.435C408.086 98.1836 410.047 94.2328 413.182 91.3314C416.317 88.4301 420.406 86.7799 424.676 86.6934C428.946 86.6069 433.099 88.0903 436.348 90.8623C439.598 93.6343 441.718 97.5025 442.307 101.734V101.734Z" fill="#FFE0C4"/>
<path d="M244.741 273.929C244.741 273.929 243.146 296.067 268.173 300.409C293.2 304.751 360.105 262.428 371.093 255.929C382.081 249.431 402.557 167.668 402.557 167.668L384.75 137.537C362.763 165.359 345.498 191.014 344.45 209.225L244.741 273.929Z" fill="#DD00AC"/>
<path d="M273.634 350.184L279.039 373.417C279.039 373.417 279.092 394.839 282.885 398.789C286.651 402.721 369.463 394.827 369.463 394.827C369.463 394.827 360.683 360.306 360.8 334.186L273.634 350.184Z" fill="#FFE0C4"/>
<path d="M448.579 647.355L418.701 630.916C418.133 592.024 441.517 539.393 469.253 484.265C407.223 494.937 348.703 498.356 298.085 485.446C289.775 483.251 282.663 477.873 278.285 470.474C273.906 463.075 272.614 454.251 274.687 445.907C274.884 445.087 275.112 444.277 275.37 443.475C281.428 424.985 267.845 413.395 280.338 393.059C313.198 381.833 344.414 378.662 372.959 388.576L390.845 428.135L479.496 416.659C483.779 416.147 488.121 416.488 492.271 417.662C496.422 418.836 500.299 420.821 503.68 423.501C507.061 426.181 509.877 429.504 511.968 433.279C514.059 437.053 515.382 441.204 515.862 445.492C515.981 446.455 516.059 447.422 516.096 448.392C498.17 532.458 478.071 608.099 448.579 647.355Z" fill="#2F2E41"/>
<path d="M261.6 203.099L295.752 201.081C297.192 200.996 298.623 201.363 299.845 202.13C301.067 202.897 302.02 204.026 302.57 205.36L312.221 228.765L352.332 261.93C352.332 261.93 368.213 282.146 368.25 308.256C368.287 334.365 373.885 394.798 373.885 394.798C373.885 394.798 350.707 362.161 336.401 370.842C333.967 372.318 333.111 375.338 330.562 376.864C329.29 377.626 326.352 376.886 325.068 377.648C305.355 389.355 284.796 400.792 282.875 398.786C279.104 394.849 274.528 374.73 274.528 374.73L243.267 259.827C241.572 253.782 241.236 247.436 242.282 241.245C243.327 235.054 245.73 229.171 249.316 224.018C251.5 220.942 253.789 218.654 255.915 218.276C260.69 217.258 258.15 206.553 261.6 203.099Z" fill="#DD00AC"/>
<path d="M552.115 720.552L566.531 710.526L533.873 648.89L512.597 663.687L552.115 720.552Z" fill="#FFE0C3"/>
<path d="M554.294 679.196L531.701 699.398C495.776 659.353 468.618 603.193 445.603 539.415C385.301 521.748 339.825 493.255 300.126 459.424C286.658 448.024 276.562 433.378 288.048 419.491C288.585 418.842 289.146 418.214 289.73 417.608C303.292 403.665 337.685 406.322 357.828 393.548L402.826 441.663L399.996 454.562L484.516 483.203C488.582 484.629 492.327 486.846 495.533 489.726C498.739 492.607 501.343 496.094 503.195 499.986C505.047 503.879 506.11 508.1 506.323 512.405C506.537 516.711 505.896 521.016 504.437 525.072C504.121 525.989 503.766 526.892 503.372 527.779L554.294 679.196Z" fill="#2F2E41"/>
<path d="M543.71 716.487L566.786 698.308L573.957 708.626L607.835 708.523C609.508 708.518 611.139 709.048 612.49 710.036C613.841 711.023 614.841 712.417 615.344 714.014C615.847 715.61 615.827 717.326 615.286 718.91C614.745 720.494 613.713 721.863 612.339 722.819L583.676 742.751L571.642 735.98L576.806 747.528L565.999 755.043L543.71 716.487Z" fill="#2F2E41"/>
<path d="M312.031 492.671C309.696 491.68 307.607 490.188 305.91 488.302C304.214 486.415 302.952 484.18 302.213 481.752C301.473 479.325 301.275 476.765 301.632 474.253C301.989 471.741 302.892 469.337 304.277 467.212L226.962 350.495L258.911 348.065L329.426 462.698C332.841 465.263 335.196 468.993 336.046 473.179C336.896 477.366 336.181 481.719 334.037 485.414C331.893 489.108 328.468 491.888 324.413 493.225C320.357 494.563 315.951 494.366 312.031 492.671V492.671Z" fill="#FFE0C4"/>
<path d="M267.577 234.342C267.577 234.342 249.497 221.478 232.787 240.616C216.077 259.753 217.472 338.929 217.315 351.697C217.266 355.695 223.037 364.322 230.989 374.288C234.559 378.761 238.568 383.505 242.687 388.22C245.071 390.949 243.017 396.629 245.41 399.281C247.791 401.918 254.619 401.529 256.883 403.977C267.63 415.597 276.361 424.442 276.361 424.442L311.348 424.872C311.743 398.854 293.932 375.63 271.05 353.184L267.577 234.342Z" fill="#DD00AC"/>
<path d="M232.311 121.06C228.999 123.452 225.514 125.916 221.472 126.508C217.43 127.101 212.698 125.146 211.58 121.216C210.212 116.41 214.55 112.035 218.449 108.911L230.812 99.0078C233.076 96.9991 235.632 95.346 238.392 94.105C239.779 93.4948 241.284 93.2042 242.798 93.2548C244.312 93.3054 245.795 93.696 247.138 94.3975C248.467 95.2951 249.544 96.5181 250.266 97.9499C250.989 99.3817 251.333 100.975 251.266 102.577C251.089 105.789 250.03 108.89 248.204 111.538C245.909 115.116 242.914 118.193 239.399 120.583C235.884 122.974 231.922 124.628 227.751 125.446" fill="#2F2E41"/>
<path d="M326.08 378.359H236.447C233.277 378.359 230.238 379.618 227.996 381.86C225.755 384.102 224.496 387.143 224.496 390.314C224.496 393.485 225.755 396.526 227.996 398.768C230.238 401.01 233.277 402.269 236.447 402.269H269.313V494.924H293.215V402.269H326.08C329.25 402.269 332.29 401.01 334.531 398.768C336.772 396.526 338.031 393.485 338.031 390.314C338.031 387.143 336.772 384.102 334.531 381.86C332.29 379.618 329.25 378.359 326.08 378.359V378.359Z" fill="#3F3D56"/>
<path d="M237.803 95.9771C238.163 87.0133 228.615 79.9156 219.667 80.4767C210.72 81.0378 203.028 87.3338 197.954 94.7301C192.881 102.12 189.834 110.68 185.838 118.704C181.842 126.728 176.52 134.584 168.579 138.742C160.639 142.894 149.587 142.153 144.099 135.065C142.393 137.653 141.32 140.608 140.968 143.688C140.616 146.769 140.994 149.889 142.073 152.796C144.319 158.616 148.509 163.48 153.931 166.562C156.09 167.842 158.395 168.856 160.797 169.582C161.788 166.907 163.181 164.4 164.93 162.147C164.14 164.814 163.839 167.602 164.04 170.377C167.742 171.086 171.551 171.026 175.23 170.2C178.842 169.392 182.216 167.753 185.084 165.412C187.953 163.072 190.237 160.096 191.755 156.719C195.11 148.772 193.401 139.711 194.119 131.114C194.83 122.516 200.01 112.701 208.634 112.561C215.201 112.453 214.332 112.994 218.493 118.078" fill="#2F2E41"/>
<path d="M297.44 143.079C297.44 153.384 293.348 163.267 286.064 170.554C278.78 177.84 268.9 181.934 258.599 181.934C237.148 181.934 216.77 157.066 216.77 135.607C216.77 114.148 237.148 104.224 258.599 104.224C268.9 104.224 278.78 108.318 286.064 115.604C293.348 122.891 297.44 132.774 297.44 143.079V143.079Z" fill="#2F2E41"/>
<path d="M277.739 189.642C297.789 185.538 310.717 165.952 306.615 145.894C302.512 125.837 282.932 112.904 262.882 117.009C242.832 121.113 229.904 140.699 234.007 160.757C238.11 180.814 257.689 193.746 277.739 189.642Z" fill="#FFE0C4"/>
<path d="M316.861 147.562C305.891 150.559 294.815 153.7 290.538 147.562C289.707 143.493 288.132 139.612 285.892 136.115C285.471 140.032 284.552 143.878 283.159 147.562C269.3 150.576 256.347 151.296 245.154 147.562C243.615 150.347 242.722 153.442 242.54 156.619C241.986 156.271 241.407 155.966 240.807 155.707C240.451 155.506 240.057 155.383 239.649 155.347C239.242 155.311 238.832 155.362 238.447 155.498C238.18 155.659 237.954 155.878 237.786 156.14C237.618 156.401 237.512 156.698 237.476 157.007C237.401 157.63 237.432 158.262 237.565 158.875C237.722 161.013 238.36 163.087 239.433 164.943C239.857 165.582 240.409 166.126 241.055 166.54C241.7 166.954 242.425 167.229 243.182 167.349C244.736 176.091 257.105 187.912 257.105 187.912C219.758 189.406 219.758 164.061 219.758 140.09L224.24 131.124H239.179V111.696H281.007C290.516 111.699 299.634 115.478 306.357 122.204C313.08 128.93 316.858 138.051 316.861 147.562V147.562Z" fill="#2F2E41"/>
<path d="M657.221 757.541L1.77874 758C1.54472 758.001 1.31287 757.955 1.09647 757.866C0.880066 757.777 0.683381 757.646 0.517662 757.481C0.351943 757.315 0.220455 757.119 0.130742 756.903C0.0410284 756.687 -0.00516129 756.455 -0.00516129 756.221C-0.00516129 755.986 0.0410284 755.755 0.130742 755.538C0.220455 755.322 0.351943 755.126 0.517662 754.961C0.683381 754.795 0.880066 754.664 1.09647 754.575C1.31287 754.486 1.54472 754.441 1.77874 754.441L657.221 753.982C657.693 753.982 658.145 754.169 658.479 754.503C658.812 754.837 659 755.289 659 755.761C659 756.233 658.812 756.686 658.479 757.019C658.145 757.353 657.693 757.541 657.221 757.541Z" fill="#CACACA"/>
<path d="M1094.93 757.541L756.191 758C755.957 758.001 755.725 757.955 755.509 757.866C755.292 757.777 755.096 757.646 754.93 757.481C754.764 757.315 754.633 757.119 754.543 756.903C754.453 756.687 754.407 756.455 754.407 756.221C754.407 755.986 754.453 755.755 754.543 755.538C754.633 755.322 754.764 755.126 754.93 754.961C755.096 754.795 755.292 754.664 755.509 754.575C755.725 754.486 755.957 754.441 756.191 754.441L1094.93 753.982C1095.4 753.982 1095.85 754.169 1096.19 754.503C1096.52 754.837 1096.71 755.289 1096.71 755.761C1096.71 756.233 1096.52 756.686 1096.19 757.019C1095.85 757.353 1095.4 757.541 1094.93 757.541Z" fill="#CACACA"/>
<path d="M672.201 221.175H543.797C538.44 221.169 533.305 219.038 529.518 215.249C525.73 211.46 523.6 206.323 523.594 200.965V115.853C523.6 110.495 525.731 105.358 529.518 101.569C533.305 97.7804 538.44 95.6492 543.797 95.6432H672.201C677.557 95.6492 682.692 97.7803 686.48 101.569C690.267 105.358 692.397 110.495 692.403 115.853V200.965C692.397 206.323 690.267 211.46 686.479 215.249C682.692 219.038 677.557 221.169 672.201 221.175ZM543.797 98.632C539.233 98.6372 534.857 100.453 531.63 103.682C528.402 106.91 526.587 111.287 526.582 115.853V200.965C526.587 205.531 528.402 209.908 531.63 213.136C534.857 216.365 539.233 218.181 543.797 218.186H672.201C676.765 218.181 681.14 216.365 684.368 213.136C687.595 209.908 689.41 205.531 689.416 200.965V115.853C689.41 111.287 687.595 106.91 684.368 103.682C681.14 100.453 676.765 98.6372 672.201 98.632H543.797Z" fill="#E6E6E6"/>
<path d="M581.843 122.543H547.496V125.532H581.843V122.543Z" fill="#E6E6E6"/>
<path d="M623.684 134.498H547.496V137.487H623.684V134.498Z" fill="#E6E6E6"/>
<path d="M623.684 144.959H547.496V147.948H623.684V144.959Z" fill="#E6E6E6"/>
<path d="M644.599 155.42H547.496V158.409H644.599V155.42Z" fill="#E6E6E6"/>
<path d="M598.288 165.881H547.496V168.87H598.288V165.881Z" fill="#E6E6E6"/>
<path d="M640.117 176.342H547.496V179.331H640.117V176.342Z" fill="#E6E6E6"/>
<path d="M563.929 186.803H547.496V189.792H563.929V186.803Z" fill="#E6E6E6"/>
</g>
<defs>
<clipPath id="clip0_104_2">
<rect width="1199" height="758" fill="white"/>
</clipPath>
</defs>
</svg>
