<svg width="887" height="653" viewBox="0 0 887 653" fill="none" xmlns="http://www.w3.org/2000/svg">
<g clip-path="url(#clip0)">
<path d="M754.057 650.253V577.913C754.057 577.913 782.249 629.199 754.057 650.253Z" fill="#DD00AC"/>
<path d="M755.799 650.241L702.509 601.319C702.509 601.319 759.354 615.235 755.799 650.241Z" fill="#DD00AC"/>
<path d="M191.188 0H63.729L0 110.382L63.729 220.765H191.188L254.917 110.382L191.188 0Z" fill="#40263B"/>




<path d="M69.5158 86.37C72.3988 86.37 74.7359 84.0329 74.7359 81.15C74.7359 78.267 72.3988 75.9299 69.5158 75.9299C66.6329 75.9299 64.2958 78.267 64.2958 81.15C64.2958 84.0329 66.6329 86.37 69.5158 86.37Z" fill="#A0A0A0">
    <animate id="os1" attributeName="fill" values="#A0A0A0;#DD00AC;#A0A0A0" begin="0;os2.end" dur="1s" ></animate>
</path>
<path d="M69.5158 115.602C72.3988 115.602 74.7359 113.265 74.7359 110.382C74.7359 107.499 72.3988 105.162 69.5158 105.162C66.6329 105.162 64.2958 107.499 64.2958 110.382C64.2958 113.265 66.6329 115.602 69.5158 115.602Z" fill="#A0A0A0">
    <animate id="os1" attributeName="fill" values="#A0A0A0;#DD00AC;#A0A0A0" begin="0;os2.end" dur="1s" ></animate>
</path>
<path d="M69.5158 144.835C72.3988 144.835 74.7359 142.498 74.7359 139.615C74.7359 136.732 72.3988 134.395 69.5158 134.395C66.6329 134.395 64.2958 136.732 64.2958 139.615C64.2958 142.498 66.6329 144.835 69.5158 144.835Z" fill="#A0A0A0">
    <animate id="os1" attributeName="fill" values="#A0A0A0;#DD00AC;#A0A0A0" begin="0;os2.end" dur="1s" ></animate>
</path>
<path d="M190.621 76.9739H91.4401V85.326H190.621V76.9739Z" fill="#A0A0A0">
    <animate id="os1" attributeName="fill" values="#A0A0A0;#DD00AC;#A0A0A0" begin="0;os2.end" dur="1s" ></animate>
</path>
<path d="M190.621 106.206H91.4401V114.558H190.621V106.206Z" fill="#A0A0A0">
    <animate id="os1" attributeName="fill" values="#A0A0A0;#DD00AC;#A0A0A0" begin="0;os2.end" dur="2s" ></animate>
</path>
<path d="M190.621 135.439H91.4401V143.791H190.621V135.439Z" fill="#A0A0A0">
    <animate id="os1" attributeName="fill" values="#A0A0A0;#DD00AC;#A0A0A0" begin="0;os2.end" dur="2s" ></animate>
</path>
<path d="M822.386 0H694.927L631.198 110.382L694.927 220.765H822.386L886.115 110.382L822.386 0Z" fill="#40263B"/>




<path d="M700.714 86.37C703.597 86.37 705.934 84.0329 705.934 81.15C705.934 78.267 703.597 75.9299 700.714 75.9299C697.831 75.9299 695.494 78.267 695.494 81.15C695.494 84.0329 697.831 86.37 700.714 86.37Z" fill="#A0A0A0">
    <animate id="os2" attributeName="fill" values="#A0A0A0;#DD00AC;#A0A0A0" begin="2;os1.end" dur="2s" ></animate>
</path>
<path d="M700.714 115.602C703.597 115.602 705.934 113.265 705.934 110.382C705.934 107.499 703.597 105.162 700.714 105.162C697.831 105.162 695.494 107.499 695.494 110.382C695.494 113.265 697.831 115.602 700.714 115.602Z" fill="#A0A0A0">
    <animate id="os2" attributeName="fill" values="#A0A0A0;#DD00AC;#A0A0A0" begin="2;os1.end" dur="2s" ></animate>
</path>
<path d="M700.714 144.835C703.597 144.835 705.934 142.498 705.934 139.615C705.934 136.732 703.597 134.395 700.714 134.395C697.831 134.395 695.494 136.732 695.494 139.615C695.494 142.498 697.831 144.835 700.714 144.835Z" fill="#A0A0A0">
    <animate id="os2" attributeName="fill" values="#A0A0A0;#DD00AC;#A0A0A0" begin="2;os1.end" dur="2s" ></animate>
</path>
<path d="M821.819 76.9739H722.638V85.326H821.819V76.9739Z" fill="#A0A0A0">
    <animate id="os2" attributeName="fill" values="#A0A0A0;#DD00AC;#A0A0A0" begin="2;os1.end" dur="2s" ></animate>
</path>
<path d="M821.819 106.206H722.638V114.558H821.819V106.206Z" fill="#A0A0A0">
    <animate id="os2" attributeName="fill" values="#A0A0A0;#DD00AC;#A0A0A0" begin="2;os1.end" dur="2s" ></animate>
</path>
<path d="M821.819 135.439H722.638V143.791H821.819V135.439Z" fill="#A0A0A0">
    <animate id="os2" attributeName="fill" values="#A0A0A0;#DD00AC;#A0A0A0" begin="2;os1.end" dur="2s" ></animate>
</path>


<path d="M506.167 1.07199H379.946L316.836 110.382L379.946 219.693H506.167L569.279 110.382L506.167 1.07199Z" fill="#40263B"/>
<path d="M385.677 86.6032C388.532 86.6032 390.847 84.2888 390.847 81.4339C390.847 78.5789 388.532 76.2645 385.677 76.2645C382.822 76.2645 380.508 78.5789 380.508 81.4339C380.508 84.2888 382.822 86.6032 385.677 86.6032Z" fill="#DD00AC"/>
<path d="M385.677 115.552C388.532 115.552 390.847 113.237 390.847 110.382C390.847 107.527 388.532 105.213 385.677 105.213C382.822 105.213 380.508 107.527 380.508 110.382C380.508 113.237 382.822 115.552 385.677 115.552Z" fill="#DD00AC"/>
<path d="M385.677 144.5C388.532 144.5 390.847 142.186 390.847 139.331C390.847 136.476 388.532 134.161 385.677 134.161C382.822 134.161 380.508 136.476 380.508 139.331C380.508 142.186 382.822 144.5 385.677 144.5Z" fill="#DD00AC"/>
<path d="M505.607 77.2984H407.389V85.5694H505.607V77.2984Z" fill="#DD00AC"/>
<path d="M505.607 106.247H407.389V114.518H505.607V106.247Z" fill="#DD00AC"/>
<path d="M505.607 135.195H407.389V143.466H505.607V135.195Z" fill="#DD00AC"/>
<path d="M550.665 639.737L538.405 639.736L532.573 592.448L550.667 592.449L550.665 639.737Z" fill="#C4BA87"/>
<path d="M553.792 651.621L514.261 651.619V651.119C514.261 647.039 515.882 643.125 518.768 640.24C521.653 637.354 525.567 635.733 529.647 635.733H529.648L553.792 635.734L553.792 651.621Z" fill="#2F2E41"/>
<path d="M664.665 639.737L652.405 639.736L646.573 592.448L664.667 592.449L664.665 639.737Z" fill="#C4BA87"/>
<path d="M667.791 651.621L628.261 651.619V651.119C628.261 647.039 629.882 643.125 632.768 640.24C635.653 637.354 639.567 635.733 643.647 635.733H643.648L667.792 635.734L667.791 651.621Z" fill="#2F2E41"/>
<path d="M545.778 399.762C545.778 399.762 535.488 427.693 536.958 439.454C538.428 451.215 526.667 533.539 528.137 540.89C529.607 548.24 526.667 584.992 528.137 590.872C529.608 596.753 524.011 603.776 526.952 609.657C529.892 615.537 534.018 627.624 534.018 627.624L553.129 626.154L556.069 609.983C556.069 609.983 564.889 608.513 563.419 599.693C561.949 590.872 570.77 532.069 570.77 532.069L595.761 449.745L631.043 524.719C631.043 524.719 632.513 577.642 636.923 583.522C641.333 589.402 632.513 605.573 636.923 611.453C641.333 617.334 645.744 627.624 645.744 627.624H667.795V615.864C667.795 615.864 681.026 608.513 667.795 586.462L658.855 454.035L650.034 393.762L545.778 399.762Z" fill="#723F6D"/>
<path d="M600.581 214.913C615.745 214.913 628.038 202.62 628.038 187.456C628.038 172.292 615.745 159.998 600.581 159.998C585.416 159.998 573.123 172.292 573.123 187.456C573.123 202.62 585.416 214.913 600.581 214.913Z" fill="#C3BA87"/>
<path d="M577.215 185.562C579.152 190.512 581.09 195.462 583.027 200.412C585.409 206.498 588.137 213.009 593.72 216.405C600.613 220.598 609.819 218.553 616.488 214.011C622.485 209.926 627.089 204.103 629.681 197.324C632.272 190.546 632.728 183.137 630.986 176.092C629.243 169.048 625.387 162.705 619.935 157.916C614.483 153.127 607.696 150.121 600.485 149.302L600.209 154.272L594.11 149.16C593.659 149.934 593.038 150.596 592.295 151.095C591.551 151.595 590.704 151.92 589.817 152.045C588.93 152.171 588.026 152.094 587.173 151.82C586.32 151.546 585.54 151.082 584.892 150.463C586.495 153.785 584.645 157.835 581.975 160.379C578.694 163.505 569.311 167.261 569.701 172.848C569.96 176.576 575.702 181.698 577.215 185.562Z" fill="#2F2E41"/>
<path d="M676.162 440.378C677.108 438.966 677.733 437.364 677.993 435.684C678.253 434.005 678.142 432.289 677.667 430.657C677.192 429.025 676.365 427.517 675.244 426.239C674.123 424.961 672.736 423.945 671.18 423.261L671.728 396.699L655.668 392.429L655.42 429.95C654.445 432.641 654.491 435.595 655.548 438.254C656.606 440.913 658.602 443.092 661.159 444.377C663.716 445.662 666.655 445.965 669.42 445.228C672.185 444.491 674.584 442.766 676.162 440.378V440.378Z" fill="#C4BA87"/>
<path d="M620.977 231.883C620.977 231.883 599.7 221.245 579.604 228.337C559.509 235.43 548.87 243.704 548.87 243.704L561.873 312.265L544.142 404.466C544.142 404.466 635.162 397.374 643.436 404.466C651.711 411.559 651.711 396.192 651.711 396.192L644.618 308.718L657.621 253.161L620.977 231.883Z" fill="#474095"/>
<path d="M531.173 441.951C532.477 440.862 533.527 439.499 534.249 437.96C534.97 436.421 535.345 434.743 535.347 433.043C535.349 431.343 534.979 429.664 534.262 428.123C533.545 426.582 532.499 425.217 531.197 424.124L539.181 398.784L524.966 390.176L514.193 426.119C512.502 428.428 511.716 431.276 511.985 434.125C512.254 436.974 513.558 439.626 515.651 441.577C517.744 443.528 520.48 444.644 523.341 444.713C526.202 444.782 528.988 443.799 531.173 441.951V441.951Z" fill="#C4BA87"/>
<path d="M557.145 243.704H548.87C548.87 243.704 535.867 251.979 535.867 263.799C535.867 275.62 516.954 413.923 516.954 413.923L537.05 417.469L554.781 320.539L567.784 294.533L557.145 243.704Z" fill="#474095"/>
<path d="M635.162 253.161H657.621C657.621 253.161 664.714 260.253 668.26 276.802C671.806 293.351 675.353 358.365 675.353 358.365L672.988 417.469H655.257L652.893 340.634L641.072 290.987L635.162 253.161Z" fill="#474095"/>
<path d="M804.841 652.382H423.841C423.576 652.382 423.321 652.277 423.134 652.09C422.946 651.902 422.841 651.648 422.841 651.382C422.841 651.117 422.946 650.863 423.134 650.675C423.321 650.488 423.576 650.382 423.841 650.382H804.841C805.106 650.382 805.36 650.488 805.548 650.675C805.736 650.863 805.841 651.117 805.841 651.382C805.841 651.648 805.736 651.902 805.548 652.09C805.36 652.277 805.106 652.382 804.841 652.382Z" fill="#CBCBCB"/>
</g>
<defs>
<clipPath id="clip0">
<rect width="886.115" height="652.383" fill="white"/>
</clipPath>
</defs>
</svg>
